# xmcd
#
# Track frame offsets:
# 150
# 35192
# 87570
# 147334
# 204366
#
# Disc length: 3706 seconds
#
# Revision: 0
# Processed by: cddbd v1.5PL3 Copyright (c) Steve Scherf et al.
# Submitted via: Audion 3.0.2 (http://www.panic.com/audion/)
#
DISCID=470e7805
DTITLE=Live - Muddy Waters Johnny Winter
DYEAR=1900
DGENRE=
TTITLE0=ee
TTITLE1=eee
TTITLE2=ee
TTITLE3=ee
TTITLE4=eeeeeff
EXTD=
EXTT0=
EXTT1=
EXTT2=
EXTT3=
EXTT4=
PLAYORDER=
